<svg id="Layer_1" data-name="Layer 1" xmlns="http://www.w3.org/2000/svg" viewBox="0 0 1116.24 757.93"><defs><style>.cls-1{fill:#fc4204;}.cls-2{fill:#fc5803;}.cls-3{fill:#fc5405;}.cls-4{fill:#fd5802;}.cls-5{fill:#fc5505;}.cls-6{fill:#fc410b;}.cls-7{fill:#fc5606;}.cls-8{fill:#fc400a;}.cls-9{fill:#fd410b;}.cls-10{fill:#fd460b;}.cls-11{fill:#fc440f;}.cls-12{fill:#fc400b;}.cls-13{fill:#fd440b;}.cls-14{fill:#fd3c08;}.cls-15{fill:#fd3c0b;}.cls-16{fill:#fc3e13;}.cls-17{fill:#fb7a35;}</style></defs><path class="cls-1" d="M401.88,794.32c26.37-21.69,56.69-26,89-22.27,74.16,8.52,142.43,37.22,211.84,61.89,67,23.82,133.3,49.31,204,61.12,59.28,9.89,116.33,1.89,173.13-14.2,90.88-25.73,176.55-66.4,267.2-92.74,38.94-11.32,78.22-20.42,119.29-13.41,18.13,3.09,34.2,10,51.71,27.87-76.6-33.48-142.79-5.08-208.88,17-65.86,22-130.84,46.68-195.86,71.11-101.75,38.24-203.1,37.11-305,.3-77.41-28-154.83-56-233-81.66C519.32,790.94,462.22,773.3,401.88,794.32Z" transform="translate(-401.88 -161.04)"/><path class="cls-2" d="M1064.73,640.06c3.37-76.74-1-152.45-27.8-225.53-25-68.08-57.48-131.86-104.66-189-27.08,28.55-43.53,62.81-65.09,93.45-8.66,3.9-9.37,13.34-14.1,20-3,4.17-3.14,13.72-11.06,10.52-6.83-2.76-3.53-10-2-15.59,1.27-4.78,3.62-9.44,2.29-14.65,21.85-54.62,54.28-102.85,89.7-149.36,8-10.57,13.43-12.66,22.77-.85,62.1,78.41,106.55,164.93,123.88,264.24-6.25,27.46,5.9,53.92,3.87,81.51-2.74,37.43-8.77,74.61-8.88,112.27C1073.6,632.3,1073.47,639.73,1064.73,640.06Z" transform="translate(-401.88 -161.04)"/><path class="cls-3" d="M852.41,479.85c12-63,38.74-119.58,73-173.25,10.13-15.89,16.7-15.74,25.66.56,9.83,17.88,23.12,33.82,30,53.39-.28,7.63-2.61,13.91-10.76,16.35-26-35.29-26.64-35.68-49,4.46-30.59,54.88-52.05,113.08-59.81,175.86-.51,4.1-2.59,8-3.93,12-16.79-17.93-7.38-39.06-7-59C850.66,500.08,857,490.32,852.41,479.85Z" transform="translate(-401.88 -161.04)"/><path class="cls-4" d="M1007,809.67c-.34,28.79-19.48,50.92-43.69,50.55-23.54-.37-42.73-23.92-42.51-52.18s19.87-50.65,44.17-50.15S1007.39,780.56,1007,809.67Z" transform="translate(-401.88 -161.04)"/><path class="cls-5" d="M768.89,639.55c-37.3-24.59-76.8-44.44-120.75-53.94-10-2.16-21.26-8.61-30.47,2.65-4.76,3.83-11.35-9.87-15.33,1.59-.52-.67-1.35-1.28-1.53-2-10.59-45.07-6.29-50.63,36.59-39.92,56.11,14,107.91,36.84,147,81.89C782.54,638.28,774.84,637.53,768.89,639.55Z" transform="translate(-401.88 -161.04)"/><path class="cls-6" d="M1185.14,804.75c38.46-44.6,55.58-97.34,62.07-154.93,1.75-15.52-2.4-17.18-16.14-15.33-27.3,3.69-52,13.91-79.19,29.39,19.95-25.6,84.11-52.6,109-48.75,6.76,1,8.94,5,8.51,10.46C1263.88,695.86,1245.45,760.18,1185.14,804.75Z" transform="translate(-401.88 -161.04)"/><path class="cls-7" d="M1177.42,593.32c36.71-29.1,80-42.81,125.14-49.5,28.18-4.17,21.56,17.83,19.54,34.28-15.76,6.56-32.35-8.36-48,1.84-2.14,1.39-7.29-1.51-6.21,4.42l-54,18.45c-8.66-4-14.73,2.5-21.48,5.56-7.52,3.4-15.52,13.33-22.87,6.15C1160.38,605.57,1177.32,601.6,1177.42,593.32Z" transform="translate(-401.88 -161.04)"/><path class="cls-8" d="M737.64,808c-58.3-47.93-80.38-109-83.61-178.76-.26-5.47-2.48-13.6,7.56-12.4C696,621,729.24,628.7,756.8,651.56c1.35,1.12.87,4.45,1.65,9.33-20.73-14.44-42.49-20.41-64.55-25.42-13.12-3-20.69-1-18.73,16.07,5.57,48.58,18.8,94,49.12,133.32C728.83,790.75,736.36,794.67,737.64,808Z" transform="translate(-401.88 -161.04)"/><path class="cls-9" d="M1267.9,584.36c5-15.82,18.59-10.69,29.06-11,8.34-.2,16.76,3,25.14,4.7-6.58,65.26-22.9,127.07-62.17,180.82,19.84-44.22,31.36-90.65,39.24-138.39C1305.66,581.21,1306.63,581.37,1267.9,584.36Z" transform="translate(-401.88 -161.04)"/><path class="cls-10" d="M842.28,319.25c9.81,8.33-2.94,16.91.42,26.05,13-4.53,6.92-26.79,24.48-26.3-28.29,58.48-54.78,117.61-65.87,182.42C800,437.31,815.5,377,842.28,319.25Z" transform="translate(-401.88 -161.04)"/><path class="cls-11" d="M1177.42,593.32c7.39,9.33-8,10.81-6.13,18.58,15.41,3.13,25.43-20.46,42.58-9.09-57.1,25.05-102.09,64.58-138.91,114.62C1100,668.47,1129,623,1177.42,593.32Z" transform="translate(-401.88 -161.04)"/><path class="cls-12" d="M970.25,376.9,981,360.55c31.42,56.73,49.9,117.07,50.82,182.4C1021.35,483.81,996.55,430.08,970.25,376.9Z" transform="translate(-401.88 -161.04)"/><path class="cls-13" d="M1064.73,640.06c1-1.38,2.92-2.83,2.81-4.12-3.82-48.35,12.35-95,12-143.08-.17-19.86-12.68-39.56-.87-59.58,14.27,92.7,6.57,183.78-21.44,273.35Q1061,673.35,1064.73,640.06Z" transform="translate(-401.88 -161.04)"/><path class="cls-14" d="M602.34,589.85q1-6.11,2.09-12.22l13.24,10.63c7.06,58.27,22.51,114.53,42.44,169.76C628.26,706,607,650.68,602.34,589.85Z" transform="translate(-401.88 -161.04)"/><path class="cls-15" d="M852.41,479.85a15.07,15.07,0,0,1,4.06,16.53c-8.66,24.56-2.22,48.62,1,72.83q0,50.74,0,101.5c1.64,5.1,4.42,10.75-5,10.54-6.93-56.15-13.24-112.24-6.54-169C847.19,501,850.8,490.73,852.41,479.85Z" transform="translate(-401.88 -161.04)"/><path class="cls-16" d="M768.89,639.55l15.54-9.77c28.74,27.82,49.22,61.19,66.45,96.93C825.7,695.35,800.16,664.81,768.89,639.55Z" transform="translate(-401.88 -161.04)"/><path class="cls-17" d="M852.41,681.25l5-10.54c7.23,14.38,5.2,29.36,1.22,44.76Q855.54,698.37,852.41,681.25Z" transform="translate(-401.88 -161.04)"/></svg>